HIERARCHY
ROOT Hips
{
	OFFSET 0.000000 0.000000 0.000000
	CHANNELS 6 Xposition Yposition Zposition Zrotation Yrotation Xrotation 
	JOINT LeftUpLeg_virtual
	{
		OFFSET 0.000000 0.000000 0.000000
		CHANNELS 3 Zrotation Yrotation Xrotation
		JOINT LeftUpLeg
		{
			OFFSET 10.205400 -3.823500 0.155100
			CHANNELS 3 Zrotation Yrotation Xrotation
			JOINT LeftLeg
			{
				OFFSET 0.708757 -12.982077 0.567790
				CHANNELS 3 Zrotation Yrotation Xrotation
				JOINT LeftFoot
				{
					OFFSET -0.708756 -10.717838 -2.184338
					CHANNELS 3 Zrotation Yrotation Xrotation
					JOINT LeftToeBase
					{
						OFFSET 0.108149 -7.191104 7.560241
						CHANNELS 3 Zrotation Yrotation Xrotation
						End Site
						{
							OFFSET 0.000000 0.000000 0.000000
						}
					}
				}
			}
		}
	}
	JOINT RightUpLeg_virtual
	{
		OFFSET 0.000000 0.000000 0.000000
		CHANNELS 3 Zrotation Yrotation Xrotation
		JOINT RightUpLeg
		{
			OFFSET -10.205400 -3.823500 0.005500
			CHANNELS 3 Zrotation Yrotation Xrotation
			JOINT RightLeg
			{
				OFFSET -0.708756 -12.982134 0.610632
				CHANNELS 3 Zrotation Yrotation Xrotation
				JOINT RightFoot
				{
					OFFSET 0.708754 -10.717769 -1.945823
					CHANNELS 3 Zrotation Yrotation Xrotation
					JOINT RightToeBase
					{
						OFFSET -0.108140 -7.191069 7.372968
						CHANNELS 3 Zrotation Yrotation Xrotation
						End Site
						{
							OFFSET 0.000000 0.000000 0.000000
						}
					}
				}
			}
		}
	}
	JOINT Spine_virtual
	{
		OFFSET 0.000000 0.000000 0.000000
		CHANNELS 3 Zrotation Yrotation Xrotation
		JOINT Spine
		{
			OFFSET 0.000000 6.876099 0.125700
			CHANNELS 3 Zrotation Yrotation Xrotation
			JOINT Spine1
			{
				OFFSET 0.000000 8.022060 0.146608
				CHANNELS 3 Zrotation Yrotation Xrotation
				JOINT Spine2
				{
					OFFSET 0.000000 9.168068 0.167552
					CHANNELS 3 Zrotation Yrotation Xrotation
					JOINT Neck_virtual
					{
						OFFSET 0.000000 0.000000 0.000000
						CHANNELS 3 Zrotation Yrotation Xrotation
						JOINT Neck
						{
							OFFSET 0.000000 10.314075 0.188496
							CHANNELS 3 Zrotation Yrotation Xrotation
							JOINT Head
							{
								OFFSET 0.000000 7.643700 -2.377400
								CHANNELS 3 Zrotation Yrotation Xrotation
								End Site
								{
									OFFSET 0.000000 0.000000 0.000000
								}
							}
						}
					}
					JOINT LeftShoulder_virtual
					{
						OFFSET 0.000000 0.000000 0.000000
						CHANNELS 3 Zrotation Yrotation Xrotation
						JOINT LeftShoulder
						{
							OFFSET 4.392200 8.824978 0.174984
							CHANNELS 3 Zrotation Yrotation Xrotation
							JOINT LeftArm
							{
								OFFSET 8.771219 -2.981674 -0.026999
								CHANNELS 3 Zrotation Yrotation Xrotation
								JOINT LeftForeArm
								{
									OFFSET 8.512804 0.000000 -0.000000
									CHANNELS 3 Zrotation Yrotation Xrotation
									JOINT LeftHand
									{
										OFFSET 18.484802 0.000000 -0.000000
										CHANNELS 3 Zrotation Yrotation Xrotation
										End Site
										{
											OFFSET 0.000000 0.000000 0.000000
										}
									}
								}
							}
						}
					}
					JOINT RightShoulder_virtual
					{
						OFFSET 0.000000 0.000000 0.000000
						CHANNELS 3 Zrotation Yrotation Xrotation
						JOINT RightShoulder
						{
							OFFSET -4.392200 8.824993 0.141379
							CHANNELS 3 Zrotation Yrotation Xrotation
							JOINT RightArm
							{
								OFFSET -8.771282 -2.981682 -0.094208
								CHANNELS 3 Zrotation Yrotation Xrotation
								JOINT RightForeArm
								{
									OFFSET -8.494598 0.000000 0.000000
									CHANNELS 3 Zrotation Yrotation Xrotation
									JOINT RightHand
									{
										OFFSET -18.483803 0.000000 0.000001
										CHANNELS 3 Zrotation Yrotation Xrotation
										End Site
										{
											OFFSET 0.000000 0.000000 0.000000
										}
									}
								}
							}
						}
					}
				}
			}
		}
	}
}
MOTION
Frames: 9
Frame Time: 0.033333
8.631207 34.754677 -5.805025 179.875573 3.810096 -179.457838 1.034053 -2.629424 8.279074 -8.124607 -4.637831 -24.724844 10.864719 7.566898 18.102021 0.735891 6.404957 4.262704 0.000000 0.000000 0.000000 4.532575 -0.236724 6.318348 0.489566 9.788315 -22.277799 -5.012690 2.659873 20.768744 9.143655 5.850551 0.050347 0.000000 0.000000 0.000000 2.314864 1.212909 -5.563099 -0.155035 -4.341442 -12.802994 -1.536408 -1.819291 11.435040 0.004306 0.062058 0.083209 -2.019127 0.584185 13.088489 -3.696174 1.033838 20.027016 0.000000 0.000000 0.000000 -0.429045 1.290602 10.349050 -17.815365 -10.737336 2.811051 -51.175363 19.107705 8.436142 -1.012471 -34.075151 4.597414 0.000000 0.000000 0.000000 -4.282277 2.360789 9.787588 24.697880 5.460598 4.088955 47.217702 -18.246917 10.128520 -6.483953 31.455268 -4.199190 0.000000 0.000000 0.000000 
8.643957 34.767117 -5.625440 179.869917 3.665295 -179.227511 1.246196 -2.480233 8.649003 -8.389708 -4.839554 -24.734728 11.211761 7.546489 18.465080 0.741738 6.455748 4.500622 0.000000 0.000000 0.000000 4.521617 -0.327735 6.348176 0.655950 10.122579 -22.621194 -4.565182 3.534466 20.729918 9.595653 6.240763 0.142156 0.000000 0.000000 0.000000 2.333602 1.161372 -5.485713 -0.137710 -4.343611 -12.931018 -1.533934 -1.827840 11.248044 0.008121 0.028270 0.152575 -2.072231 0.709880 13.084800 -3.789050 0.991246 19.953718 0.000000 0.000000 0.000000 -0.455852 1.414189 10.409840 -17.787078 -10.731796 2.750385 -51.174328 18.922544 8.100434 -0.952433 -34.055576 4.475490 0.000000 0.000000 0.000000 -4.260093 2.399715 9.791012 24.752271 5.616243 4.063095 47.112302 -17.831179 10.442355 -6.500889 31.136094 -4.247564 0.000000 0.000000 0.000000 
8.665424 34.774025 -5.432271 179.873264 3.571206 -179.289870 1.109861 -2.515484 8.702230 -8.153590 -4.786000 -25.277147 11.335685 7.475292 18.607252 0.564160 6.341590 4.438649 0.000000 0.000000 0.000000 4.576330 -0.563359 6.431710 0.687141 9.970574 -23.092115 -4.592928 3.696095 20.482832 9.582632 6.153902 0.807693 0.000000 0.000000 0.000000 2.359216 1.168733 -5.233308 -0.133810 -4.309599 -12.863144 -1.514180 -1.789581 11.125746 -0.020612 0.027060 0.122603 -1.998797 0.700180 13.080315 -3.808128 0.970210 19.890110 0.000000 0.000000 0.000000 -0.444729 1.388297 10.384678 -17.750502 -10.593283 2.791433 -51.375665 18.565108 7.652085 -0.908536 -33.860082 4.314911 0.000000 0.000000 0.000000 -4.191691 2.520865 9.864660 24.836866 5.902032 4.080609 46.882920 -17.291940 11.094593 -6.388313 30.436607 -4.093875 0.000000 0.000000 0.000000 
8.685784 34.772720 -5.251213 179.905011 3.438670 -179.346165 1.005291 -2.561988 8.707618 -8.004088 -4.777588 -25.743342 11.555965 7.402319 18.796643 0.407997 6.228064 4.342632 0.000000 0.000000 0.000000 4.603872 -0.778796 6.555380 0.778626 9.779600 -23.521799 -4.632849 3.844393 20.208563 9.637597 6.084132 1.511992 0.000000 0.000000 0.000000 2.351081 1.213027 -5.047362 -0.109552 -4.295773 -12.750619 -1.444107 -1.616497 11.133465 0.021944 0.034337 0.116131 -1.975608 0.719466 12.980471 -3.904693 0.841231 19.678557 0.000000 0.000000 0.000000 -0.382467 1.325096 10.400414 -17.654977 -10.722147 2.634220 -51.691903 18.308795 7.316050 -0.916706 -33.541136 4.194182 0.000000 0.000000 0.000000 -4.163707 2.480775 9.822636 24.840169 6.102506 4.114925 46.633216 -16.800735 11.826327 -6.336197 29.745945 -4.121918 0.000000 0.000000 0.000000 
8.696369 34.766422 -5.104033 179.912783 3.222018 -179.376982 0.904557 -2.633264 8.613333 -7.902466 -4.782584 -26.035703 11.800197 7.396381 19.009554 0.151868 6.148608 4.296071 0.000000 0.000000 0.000000 4.550237 -0.902093 6.539961 0.932577 9.554929 -23.739316 -4.680134 3.951692 19.980253 9.702700 6.004556 2.006086 0.000000 0.000000 0.000000 2.318501 1.119009 -4.934553 -0.117361 -4.153701 -12.574861 -1.411420 -1.682821 11.183703 0.020209 0.116490 0.117545 -1.916221 0.735650 12.926009 -3.943747 0.764296 19.515739 0.000000 0.000000 0.000000 -0.327578 1.332746 10.370013 -17.601674 -10.761441 2.587206 -52.068888 18.073492 7.140881 -0.871843 -33.110476 3.981449 0.000000 0.000000 0.000000 -4.113808 2.519024 9.825574 24.851391 6.245857 4.160391 46.292092 -16.498199 12.448007 -6.346226 29.389922 -4.149990 0.000000 0.000000 0.000000 
8.690317 34.754761 -5.000144 179.902607 3.004737 -179.399181 0.850668 -2.748172 8.452917 -7.949653 -4.783806 -26.154594 12.145030 7.457366 19.191549 -0.225872 6.122619 4.338787 0.000000 0.000000 0.000000 4.454782 -0.977299 6.379053 1.120701 9.378978 -23.733622 -4.747624 4.049570 19.983119 9.752813 5.913725 2.253416 0.000000 0.000000 0.000000 2.273680 1.021839 -4.917353 -0.142015 -4.032808 -12.432631 -1.380391 -1.637361 11.284803 0.032645 0.151203 0.124145 -1.883157 0.745886 12.935261 -3.950474 0.655955 19.454580 0.000000 0.000000 0.000000 -0.266575 1.414980 10.437665 -17.559489 -11.027819 2.507437 -52.419380 18.070136 6.988075 -0.885577 -32.800679 3.815909 0.000000 0.000000 0.000000 -4.096075 2.453007 9.842120 24.879294 6.284176 4.164531 45.995494 -16.383780 12.794748 -6.408254 29.519128 -4.244723 0.000000 0.000000 0.000000 
8.677649 34.749107 -4.929491 179.843648 2.840954 -179.427048 0.763131 -2.863869 8.261821 -8.015533 -4.758916 -26.086977 12.482347 7.616586 19.238881 -0.701829 6.138666 4.393575 0.000000 0.000000 0.000000 4.356374 -0.980275 6.160683 1.287228 9.201972 -23.627124 -4.804302 4.149094 20.097468 9.833461 5.840495 2.366701 0.000000 0.000000 0.000000 2.218950 0.903949 -5.061238 -0.211734 -3.883202 -12.255346 -1.359171 -1.550953 11.404699 0.046361 0.165998 0.099737 -1.840972 0.724312 13.009424 -3.871282 0.539815 19.507251 0.000000 0.000000 0.000000 -0.272460 1.327857 10.463353 -17.597576 -11.067976 2.307288 -52.543822 18.409185 6.964451 -1.071309 -32.557439 3.797542 0.000000 0.000000 0.000000 -4.084367 2.519079 9.913839 24.934692 6.190740 4.189346 45.775730 -16.450355 13.046982 -6.523263 29.889830 -4.384249 0.000000 0.000000 0.000000 
8.672400 34.753185 -4.891024 179.862418 2.682232 -179.461363 0.718997 -2.887723 8.082270 -8.135583 -4.697543 -25.901046 12.892718 7.702439 19.135880 -1.263073 6.158055 4.406891 0.000000 0.000000 0.000000 4.331673 -0.856132 6.017768 1.425306 8.928270 -23.518144 -4.813689 4.174717 20.218145 9.903968 5.777390 2.384054 0.000000 0.000000 0.000000 2.248655 0.924759 -5.212531 -0.291897 -3.768512 -12.127957 -1.369640 -1.498817 11.349645 0.023638 -0.043734 0.131005 -1.900667 0.808977 13.171098 -3.787536 0.354390 19.653804 0.000000 0.000000 0.000000 -0.342768 1.349746 10.551794 -17.610772 -11.113425 2.475981 -52.765957 18.601184 6.633206 -1.097038 -32.524910 3.604332 0.000000 0.000000 0.000000 -4.078080 2.604346 10.144266 25.008113 6.242820 4.098864 45.731081 -16.631364 13.231927 -6.692344 30.237599 -4.555218 0.000000 0.000000 0.000000 
8.680202 34.768131 -4.866437 179.798952 2.506938 -179.468562 0.499272 -2.801201 7.952220 -8.127746 -4.640609 -25.744325 13.188744 7.786985 18.956695 -1.904623 6.153962 4.337432 0.000000 0.000000 0.000000 4.267971 -0.710977 5.982358 1.497963 8.581508 -23.528277 -4.767704 4.122779 20.423509 9.959466 5.745922 2.370537 0.000000 0.000000 0.000000 2.163738 0.971449 -5.454116 -0.423069 -3.737762 -12.044642 -1.376394 -1.525693 11.490404 0.004241 -0.034267 0.105493 -1.897450 0.808185 13.299555 -3.557985 0.155070 19.863722 0.000000 0.000000 0.000000 -0.374127 1.457266 10.658864 -17.589028 -11.077827 2.293045 -52.709710 19.008041 6.548214 -1.146262 -32.851960 3.425692 0.000000 0.000000 0.000000 -4.121058 2.640511 10.295369 25.219297 6.246668 4.004603 45.690533 -16.808566 13.396535 -6.730429 30.437714 -4.592850 0.000000 0.000000 0.000000 
